<?xml version="1.0" encoding="UTF-8"?>
<svg id="Layer_2" data-name="Layer 2" xmlns="http://www.w3.org/2000/svg" viewBox="0 0 203.85 194.18">
  <g id="Layer_1-2" data-name="Layer 1-2">
    <g>
      <path d="M74.44,51.06h60.84c.64,0,.76,0,.36,0h-61.2Z" style="fill: #ffffff; stroke: #ffffff; stroke-miterlimit: 10; stroke-width: 5px;"/>
      <path d="M67.18,75.8h47.83c.5,0,.6,0,.28,0h-48.11Z" style="fill: #ffffff; stroke: #ffffff; stroke-miterlimit: 10; stroke-width: 5px;"/>
      <path d="M61.5,100.55h36.83c.39,0,.46,0,.22,0h-37.05Z" style="fill: #ffffff; stroke: #ffffff; stroke-miterlimit: 10; stroke-width: 5px;"/>
      <path d="M123.98,160.16c-1.02,1.02-2.31,1.52-3.63,1.75-2.21.94-4.85.53-6.65-1.28l-29.39-29.39c-2.37-2.37-2.37-6.21,0-8.57l.29-.29h-44.86l16.28-83.15c1.15-5.88,5.32-10.01,10.11-10.01h86.73c6.77,0,11.74,8.03,10.11,16.34l-9.8,50.08,8.67-8.67,9.42-48.12c1.84-9.38-3.77-18.44-11.41-18.44H61.94c-5.41,0-10.11,4.66-11.41,11.3l-24.42,124.72c-1.84,9.38,3.77,18.44,11.41,18.44h97.9c5.41,0,10.11-4.66,11.41-11.3l6.39-32.66-29.25,29.25h0Z" style="fill: #ffffff;"/>
      <path d="M186.17,86.83l-6.67-6.67c-2.32-2.32-6.07-2.32-8.39,0l-51.7,51.7-15.13-15.13c-2.08-2.08-5.46-2.08-7.55,0l-7.51,7.51c-2.08,2.08-2.08,5.46,0,7.55l25.87,25.87c1.59,1.59,3.91,1.95,5.86,1.12,1.16-.2,2.3-.64,3.2-1.54l62.02-62.02c2.32-2.32,2.32-6.07,0-8.39Z" style="fill: #55aa49;"/>
    </g>
  </g>
</svg>
