<?xml version="1.0" encoding="UTF-8"?>
<svg id="Layer_2" xmlns="http://www.w3.org/2000/svg" version="1.1" viewBox="0 0 791 220.4">
  <defs>
    <style>
      .st0 { fill: #55aa49; }
      .st1 { fill: #231f20; stroke: #1d4776; stroke-miterlimit: 10; stroke-width: 5px; }
      .st2 { fill: #1d4776; }
    </style>
  </defs>
  <path class="st1" d="M69.6,43.7h86.8c.9,0,1.1,0,.6,0h-87.4Z"/>
  <path class="st1" d="M59.2,79.1h68.2c.7,0,.9,0,.4,0H59.2Z"/>
  <path class="st1" d="M51,114.3h52.5c.6,0,.7,0,.3,0h-53,.1Z"/>
  <path class="st2" d="M140.2,199.6c-1.4,1.4-3.3,2.1-5.1,2.6-3.1,1.3-6.9.7-9.6-1.9l-42-42c-3.4-3.4-3.4-8.9,0-12.3l.4-.4H20L43.3,26.8c1.6-8.4,7.6-14.3,14.4-14.3h123.8c9.7,0,16.7,11.4,14.4,23.3l-14,71.5,12.4-12.4,13.4-68.7c2.6-13.3-5.4-26.3-16.3-26.3H51.7c-7.7,0-14.4,6.7-16.3,16.1L.5,194.1c-2.6,13.4,5.4,26.3,16.3,26.3h139.7c7.7,0,14.4-6.7,16.3-16.1l9.1-46.7-41.7,41.7h0v.3Z"/>
  <path class="st0" d="M229,94.8l-9.6-9.6c-3.3-3.3-8.7-3.3-12,0l-73.8,73.8-21.6-21.6c-3-3-7.9-3-10.8,0l-10.7,10.7c-3,3-3,7.9,0,10.8l37,37c2.3,2.3,5.6,2.7,8.4,1.6,1.7-.3,3.3-.9,4.6-2.1l88.5-88.5c3.3-3.3,3.3-8.7,0-12h0Z"/>
  <g>
    <path class="st2" d="M235.7,162l66.5-103.3h19l22.6,103.3h-20.4l-5-23.6h-43.8l-15,23.6h-23.8ZM307.5,86.9l-21.1,33.1h28.1s-7-33.1-7-33.1Z"/>
    <path class="st2" d="M382.8,163.7c-6.4,0-12.4-1.4-17.8-4.1-5.4-2.7-9.6-6.9-12.1-12.3l15.6-10.6c1.4,3.1,3.7,5.6,6.6,7.3,3,1.7,6,2.4,9.3,2.4s4.1-.4,5.6-1.4c1.4-.9,2.1-2.1,2.1-3.7s-.6-3-1.9-4.1c-1.3-1-3.4-2.1-6.6-3.1l-4.9-1.7c-5.1-1.9-9.1-4.6-11.8-8.3-2.7-3.7-4.1-7.9-4.1-12.6,0-7.6,2.6-13.4,7.7-17.6,5.1-4.1,11.8-6.3,20-6.3s10.7,1.3,15.4,3.9c4.7,2.6,8.1,6.1,10.4,10.7l-14.6,9.1c-2.9-4.7-6.7-7.1-11.8-7.1s-3.7.4-5.1,1.4c-1.4.9-2.1,2.1-2.1,3.9,0,2.7,2,4.7,5.9,6.1l6.3,2.3c11.4,4.3,17.1,11.1,17.1,20.7s-2.9,14.3-8.4,18.7-12.6,6.6-20.7,6.6h.1Z"/>
    <path class="st2" d="M457.7,162.7c-8.6-.1-15-3.1-19.4-8.7s-5.6-13.3-3.4-22.8l5.1-24.4h-14.7l3.9-17.4h14.7l4.3-20.3h20l-4.3,20.3h20.6l-3.9,17.4h-20.6l-5.4,25.8c-1.7,8.3,1.6,12.4,10,12.4s5.4-.4,8-1.1l-3.9,17.7c-3.9,1-7.6,1.4-11.1,1.3h.1Z"/>
    <path class="st2" d="M515.1,163.2c-8.3,0-15.1-3.1-20.6-9.3-5.3-6.1-8-13.8-8-23.1s3.6-22.7,10.8-31c7.3-8.1,16.4-12.3,27.4-12.3s10.4,1.3,14.7,3.7,7,5.1,8.4,8l2-10h20l-15.4,72.8h-20l1.3-6.4c-4.9,5-11.7,7.6-20.7,7.6ZM522.2,146c5.9,0,10.8-2.1,14.8-6.6s6-10,6-16.7-1.4-9.4-4.1-12.4-6.6-4.6-11.6-4.6-10.8,2.1-14.8,6.6-6,10-6,16.6,1.4,9.6,4.1,12.6c2.7,3,6.6,4.6,11.6,4.6Z"/>
    <path class="st0" d="M574.9,162l22-103.3h30.7c9.6,0,17.1,2.6,22.7,7.7,5.6,5.1,8.4,11.3,8.4,18.4,0,10.1-4.3,18.3-12.8,24,7.4,4.3,11.1,11,11.1,20.3s-3.6,17.7-10.6,23.8c-7.1,6.1-17.1,9.3-30.3,9.3h-41.3ZM599.9,142.5h18c5.6,0,10-1.1,13.1-3.6s4.7-5.6,4.7-9.4-1-5.6-3.1-7.6-5-3-8.7-3h-19.1l-5.1,23.6h.3ZM608.9,101.1h12.7c5,0,9-1.1,11.8-3.7,2.9-2.4,4.3-5.6,4.3-9.4s-1-5.1-3-7c-2-1.9-4.9-2.9-8.4-2.9h-12.4l-5,23h0Z"/>
    <path class="st0" d="M666.4,162l15.4-72.8h20l-15.4,72.8h-20ZM706.1,73.5c-2.4,2.4-5.4,3.7-9,3.7s-6.6-1.3-9-3.7c-2.6-2.4-3.9-5.4-3.9-9s1.3-6.4,3.9-9c2.6-2.4,5.6-3.7,9-3.7s6.4,1.3,9,3.7c2.4,2.4,3.7,5.4,3.7,9s-1.3,6.4-3.7,9Z"/>
    <path class="st0" d="M707.1,162l23.1-109.2h20l-23.1,109.2h-20Z"/>
    <path class="st0" d="M747.9,162l23.1-109.2h20l-23.1,109.2h-20Z"/>
  </g>
</svg>
