<?xml version="1.0" encoding="UTF-8"?>
<svg id="Layer_2" xmlns="http://www.w3.org/2000/svg" version="1.1" viewBox="0 0 585.8 154.5">
  <defs>
    <style>
      .st0 { fill: #55aa49; }
      .st1, .st2 { fill: #231f20; }
      .st2 { stroke: #1d4776; stroke-miterlimit: 10; stroke-width: 5px; }
      .st3 { fill: #1d4776; }
    </style>
  </defs>
  <path class="st2" d="M48.7,30.6h60.8c.6,0,.8,0,.4,0h-61.2Z"/>
  <path class="st2" d="M41.4,55.4h47.8c.5,0,.6,0,.3,0h-48.1Z"/>
  <path class="st2" d="M35.7,80.1h36.8c.4,0,.5,0,.2,0h-37.1.1Z"/>
  <path class="st3" d="M98.2,139.8c-1,1-2.3,1.5-3.6,1.8-2.2.9-4.8.5-6.7-1.3l-29.4-29.4c-2.4-2.4-2.4-6.2,0-8.6l.3-.3H14L30.3,18.8c1.1-5.9,5.3-10,10.1-10h86.7c6.8,0,11.7,8,10.1,16.3l-9.8,50.1,8.7-8.7,9.4-48.1c1.8-9.3-3.8-18.4-11.4-18.4H36.2c-5.4,0-10.1,4.7-11.4,11.3L.3,136c-1.8,9.4,3.8,18.4,11.4,18.4h97.9c5.4,0,10.1-4.7,11.4-11.3l6.4-32.7-29.2,29.2h0v.2Z"/>
  <path class="st0" d="M160.4,66.4l-6.7-6.7c-2.3-2.3-6.1-2.3-8.4,0l-51.7,51.7-15.1-15.1c-2.1-2.1-5.5-2.1-7.6,0l-7.5,7.5c-2.1,2.1-2.1,5.5,0,7.6l25.9,25.9c1.6,1.6,3.9,1.9,5.9,1.1,1.2-.2,2.3-.6,3.2-1.5l62-62c2.3-2.3,2.3-6.1,0-8.4h0Z"/>
  <g>
    <path class="st1" d="M184.5,107.1v32.1h-3.2v-32.1h3.2Z"/>
    <path class="st1" d="M216,139.1h-3.2l-17.8-27v27h-3.2v-32.1h3.2l17.8,26.9v-26.9h3.2v32.1Z"/>
    <path class="st1" d="M253.3,107.1l-12.2,32.1h-3.7l-12.2-32.1h3.5l10.5,28.6,10.6-28.6h3.5Z"/>
    <path class="st1" d="M269,137.4c-2.4-1.4-4.3-3.3-5.7-5.8-1.4-2.5-2.1-5.3-2.1-8.5s.7-6,2.1-8.5,3.3-4.4,5.7-5.8c2.4-1.4,5.1-2.1,8.1-2.1s5.7.7,8.1,2.1,4.3,3.3,5.7,5.8,2.1,5.3,2.1,8.5-.7,6-2.1,8.5-3.3,4.4-5.7,5.8-5.1,2.1-8.1,2.1-5.7-.7-8.1-2.1ZM283.5,135c1.9-1.1,3.4-2.7,4.5-4.8s1.6-4.5,1.6-7.2-.5-5.1-1.6-7.2-2.6-3.6-4.5-4.7-4-1.7-6.4-1.7-4.5.6-6.4,1.7-3.4,2.7-4.5,4.7-1.6,4.4-1.6,7.2.5,5.1,1.6,7.2,2.6,3.6,4.5,4.8,4,1.6,6.4,1.6,4.5-.6,6.4-1.6Z"/>
    <path class="st1" d="M306.7,107.1v32.1h-3.2v-32.1h3.2Z"/>
    <path class="st1" d="M319.1,114.6c1.4-2.5,3.3-4.4,5.6-5.8,2.4-1.4,5-2.1,8-2.1s6.6.8,9.2,2.6,4.4,4.1,5.6,7.2h-3.8c-.9-2.2-2.3-3.9-4.2-5.1-1.9-1.2-4.1-1.8-6.8-1.8s-4.5.6-6.4,1.7-3.4,2.7-4.4,4.8c-1.1,2.1-1.6,4.5-1.6,7.2s.5,5.1,1.6,7.2c1.1,2.1,2.5,3.6,4.4,4.7,1.9,1.1,4,1.6,6.4,1.6s4.9-.6,6.8-1.8,3.3-2.9,4.2-5h3.8c-1.2,3.1-3,5.4-5.6,7.1-2.6,1.7-5.6,2.5-9.2,2.5s-5.6-.7-8-2.1c-2.4-1.4-4.3-3.3-5.6-5.8-1.4-2.5-2.1-5.3-2.1-8.4s.7-6,2.1-8.5h0v-.2Z"/>
    <path class="st1" d="M361.7,109.7v12h12.2v2.7h-12.2v12.2h13.5v2.7h-16.8v-32.1h16.8v2.7h-13.5v-.2Z"/>
    <path class="st1" d="M407.5,138.4c-1.6-.7-2.9-1.8-3.8-3.1s-1.4-2.8-1.5-4.4h3.4c.1,1.6.8,2.9,2.1,4.1,1.2,1.2,3,1.8,5.4,1.8s3.9-.6,5.2-1.7c1.3-1.1,1.9-2.5,1.9-4.2s-.4-2.5-1.1-3.3-1.6-1.5-2.6-1.9-2.5-.9-4.3-1.3c-2.1-.6-3.8-1.2-5.1-1.7s-2.3-1.4-3.2-2.6-1.3-2.7-1.3-4.7.4-3.1,1.3-4.4,2.1-2.3,3.6-3.1,3.4-1.1,5.4-1.1c3,0,5.4.7,7.2,2.2s2.9,3.3,3.1,5.6h-3.5c-.2-1.3-.9-2.5-2.2-3.5-1.2-1-2.9-1.5-5-1.5s-3.5.5-4.8,1.5-1.9,2.4-1.9,4.2.4,2.4,1.1,3.3c.7.8,1.6,1.4,2.6,1.9,1.1.4,2.5.9,4.3,1.4,2.1.6,3.8,1.2,5,1.7s2.4,1.4,3.3,2.6,1.3,2.7,1.3,4.7-.4,2.9-1.2,4.3-2,2.4-3.5,3.3-3.4,1.2-5.6,1.2-4-.4-5.6-1.1h0v-.2Z"/>
    <path class="st1" d="M465.5,107.5v31.7h-3.2v-25.3l-11.3,25.3h-2.3l-11.3-25.2v25.2h-3.2v-31.7h3.4l12.2,27.4,12.2-27.4h3.5Z"/>
    <path class="st1" d="M496,131.5h-14.6l-2.8,7.6h-3.4l11.7-31.7h3.6l11.7,31.7h-3.4l-2.8-7.6h0ZM495,128.9l-6.3-17.3-6.3,17.3h12.7-.1Z"/>
    <path class="st1" d="M529,139.1l-7.9-13.4h-5.9v13.4h-3.2v-32.1h9.6c3.6,0,6.3.9,8.1,2.6s2.8,4,2.8,6.8-.7,4.3-2,5.9-3.3,2.7-5.9,3.2l8.3,13.6h-3.9,0ZM515.1,123.1h6.5c2.5,0,4.4-.6,5.7-1.8,1.3-1.2,1.9-2.9,1.9-4.9s-.6-3.7-1.8-4.9c-1.2-1.2-3.2-1.7-5.8-1.7h-6.4v13.3h-.1Z"/>
    <path class="st1" d="M562.2,107.1v2.7h-8.9v29.4h-3.2v-29.4h-9v-2.7h21.1Z"/>
  </g>
  <g>
    <path class="st3" d="M178.8,86L225.4,13.6h13.3l15.8,72.4h-14.3l-3.5-16.5h-30.7l-10.5,16.5h-16.7ZM229.1,33.4l-14.8,23.2h19.7l-4.9-23.2Z"/>
    <path class="st3" d="M280.7,87.2c-4.5,0-8.7-1-12.5-2.9-3.8-1.9-6.7-4.8-8.5-8.6l10.9-7.4c1,2.2,2.6,3.9,4.6,5.1,2.1,1.2,4.2,1.7,6.5,1.7s2.9-.3,3.9-1c1-.6,1.5-1.5,1.5-2.6s-.4-2.1-1.3-2.9c-.9-.7-2.4-1.5-4.6-2.2l-3.4-1.2c-3.6-1.3-6.4-3.2-8.3-5.8-1.9-2.6-2.9-5.5-2.9-8.8,0-5.3,1.8-9.4,5.4-12.3,3.6-2.9,8.3-4.4,14-4.4s7.5.9,10.8,2.7c3.3,1.8,5.7,4.3,7.3,7.5l-10.2,6.4c-2-3.3-4.7-5-8.3-5s-2.6.3-3.6,1c-1,.6-1.5,1.5-1.5,2.7,0,1.9,1.4,3.3,4.1,4.3l4.4,1.6c8,3,12,7.8,12,14.5s-2,10-5.9,13.1c-3.9,3.1-8.8,4.6-14.5,4.6Z"/>
    <path class="st3" d="M332.2,86.5c-6-.1-10.5-2.2-13.6-6.1-3.1-3.9-3.9-9.3-2.4-16l3.6-17.1h-10.3l2.7-12.2h10.3l3-14.2h14l-3,14.2h14.4l-2.7,12.2h-14.4l-3.8,18.1c-1.2,5.8,1.1,8.7,7,8.7s3.8-.3,5.6-.8l-2.7,12.4c-2.7.7-5.3,1-7.8.9Z"/>
    <path class="st3" d="M371.4,86.8c-5.8,0-10.6-2.2-14.4-6.5-3.7-4.3-5.6-9.7-5.6-16.2s2.5-15.9,7.6-21.7c5.1-5.7,11.5-8.6,19.2-8.6s7.3.9,10.3,2.6,4.9,3.6,5.9,5.6l1.4-7h14l-10.8,51h-14l.9-4.5c-3.4,3.5-8.2,5.3-14.5,5.3ZM376.4,74.8c4.1,0,7.6-1.5,10.4-4.6,2.8-3.1,4.2-7,4.2-11.7s-1-6.6-2.9-8.7c-1.9-2.1-4.6-3.2-8.1-3.2s-7.6,1.5-10.4,4.6c-2.8,3.1-4.2,7-4.2,11.6s1,6.7,2.9,8.8c1.9,2.1,4.6,3.2,8.1,3.2Z"/>
    <path class="st0" d="M412.3,86l15.4-72.4h21.5c6.7,0,12,1.8,15.9,5.4,3.9,3.6,5.9,7.9,5.9,12.9,0,7.1-3,12.8-9,16.8,5.2,3,7.8,7.7,7.8,14.2s-2.5,12.4-7.4,16.7c-5,4.3-12,6.5-21.2,6.5h-28.8ZM429.8,72.3h12.6c3.9,0,7-.8,9.2-2.5,2.2-1.7,3.3-3.9,3.3-6.6s-.7-3.9-2.2-5.3c-1.5-1.4-3.5-2.1-6.1-2.1h-13.4l-3.6,16.5ZM436,43.3h8.9c3.5,0,6.3-.8,8.3-2.6,2-1.7,3-3.9,3-6.6s-.7-3.6-2.1-4.9c-1.4-1.3-3.4-2-5.9-2h-8.7l-3.5,16.1Z"/>
    <path class="st0" d="M475.3,86l10.8-51h14l-10.8,51h-14ZM503.2,24c-1.7,1.7-3.8,2.6-6.3,2.6s-4.6-.9-6.3-2.6c-1.8-1.7-2.7-3.8-2.7-6.3s.9-4.5,2.7-6.3c1.8-1.7,3.9-2.6,6.3-2.6s4.5.9,6.3,2.6c1.7,1.7,2.6,3.8,2.6,6.3s-.9,4.5-2.6,6.3Z"/>
    <path class="st0" d="M502.8,86l16.2-76.5h14l-16.2,76.5h-14Z"/>
    <path class="st0" d="M530.4,86l16.2-76.5h14l-16.2,76.5h-14Z"/>
  </g>
</svg>
