<?xml version="1.0" encoding="UTF-8"?>
<svg id="a" xmlns="http://www.w3.org/2000/svg" version="1.1" viewBox="0 0 1511.2 349.5">
  <defs>
    <style>
      .st0 { fill: #55aa49; }
      .st1 { fill: none; stroke: #1d4776; stroke-miterlimit: 10; stroke-width: 5px; }
      .st2 { fill: #1d4776; }
    </style>
  </defs>
  <g>
    <polygon class="st2" points="269.9 185 263.2 191.7 226.8 190.7 213 160.1 209.3 151.8 149.8 284.1 86 310.7 190.1 102.3 228.1 102.3 228.1 102.5 228.6 102.3 257.4 160.1 269.9 185"/>
    <path class="st0" d="M386.9,160.1h-173.9l13.8,30.7h7l36.4.9,76,1.9-6.5,17.9,55.2,7.7,10.8-29.2-18.9-29.9ZM364.9,230.4l-91.4-17,4.1-9.6-18.9-.7-19.6-.7-19.1-.7-6.9,18.9,16.5,18.9,93.3,18.7-8.6,22-64.1-2.9,6.7-17.5-55.5-7.7-10.3,28.7,18.7,29.9h121.5l41.1-29.9,11.2-31.3-18.7-19.1h0Z"/>
  </g>
  <line class="st1" x1="477.3" y1="110" x2="477.3" y2="291.2"/>
  <path class="st2" d="M515.4,249l27.8-64.6h11.7l27.9,64.6h-13.8l-6.3-14.7h-27.6l-6.2,14.7h-13.7ZM549.1,201.7l-8.9,20.9h17.8l-8.8-20.9Z"/>
  <path class="st2" d="M607.2,250c-5.1,0-9.7-1-13.9-3-4.2-2-7.4-4.9-9.7-8.5l10.1-8.5c1.6,2.4,3.6,4.2,6.1,5.6,2.5,1.4,5.1,2,7.9,2s4.7-.6,6.3-1.7c1.6-1.1,2.4-2.7,2.4-4.5s-.7-3.4-2.1-4.7c-1.4-1.3-3.7-2.5-6.9-3.6l-5.5-1.9c-10.6-3.7-15.9-9.9-15.9-18.5s2-10.7,6.1-14.1c4.1-3.5,9.3-5.2,15.7-5.2s15,3,20.4,8.9l-8.7,9c-3.1-3.7-7-5.5-11.6-5.5s-4.4.5-6.1,1.5c-1.7,1-2.5,2.4-2.5,4.2s.7,3.4,2.2,4.5,4.1,2.3,7.8,3.6l5.2,1.9c10.2,3.8,15.4,10.2,15.4,19.2s-2.1,10.5-6.3,14.1c-4.2,3.6-9.7,5.4-16.3,5.4h0Z"/>
  <path class="st2" d="M651.4,249v-52h-17.2v-12.6h47.9v12.6h-17.4v52h-13.3Z"/>
  <path class="st2" d="M677.7,249l27.8-64.6h11.7l27.9,64.6h-13.8l-6.3-14.7h-27.6l-6.2,14.7h-13.7ZM711.3,201.7l-8.9,20.9h17.8l-8.8-20.9Z"/>
  <path class="st2" d="M779.2,250c-9.2,0-17.1-3.3-23.6-9.8-6.5-6.5-9.8-14.4-9.8-23.6s3.3-17.1,9.8-23.6c6.5-6.5,14.4-9.8,23.6-9.8s12.3,1.6,17.7,4.7c5.3,3.1,9.4,7.3,12.2,12.5l-11.5,6.4c-4.2-7.2-10.4-10.8-18.4-10.8s-10.3,2-14.2,6c-3.9,4-5.9,8.9-5.9,14.6s2,10.6,5.9,14.6c3.9,4,8.7,6,14.2,6,8,0,14.1-3.6,18.4-10.8l11.5,6.4c-2.8,5.3-6.8,9.5-12.1,12.6-5.3,3.1-11.2,4.6-17.8,4.6h0Z"/>
  <path class="st2" d="M818.2,249v-64.6h24.8c5.9,0,10.7,1.8,14.3,5.5,3.7,3.6,5.5,8.2,5.5,13.6,0,8.5-4.4,14.1-13.3,16.8l23.2,28.7h-15.9l-22.2-27.2h-3.2v27.2h-13.2ZM831.4,210.5h10c2.5,0,4.6-.6,6-1.9,1.5-1.2,2.2-3,2.2-5.1s-.7-3.9-2.2-5.1c-1.5-1.2-3.5-1.9-6-1.9h-10v14h0Z"/>
  <path class="st2" d="M870.8,249l27.8-64.6h11.7l27.9,64.6h-13.8l-6.3-14.7h-27.6l-6.2,14.7h-13.7ZM904.4,201.7l-8.9,20.9h17.8l-8.8-20.9Z"/>
  <path class="st2" d="M945.5,249v-64.6h39.3v12.6h-26.1v13.4h20.5v12.6h-20.5v26.1h-13.2Z"/>
  <path class="st2" d="M1006.7,249v-52h-17.2v-12.6h47.9v12.6h-17.4v52h-13.3Z"/>
  <path class="st2" d="M1083.3,250c-5.1,0-9.7-1-13.9-3s-7.4-4.9-9.7-8.5l10.1-8.5c1.6,2.4,3.6,4.2,6.1,5.6,2.5,1.4,5.1,2,7.9,2s4.7-.6,6.3-1.7c1.6-1.1,2.4-2.7,2.4-4.5s-.7-3.4-2.1-4.7c-1.4-1.3-3.7-2.5-6.9-3.6l-5.5-1.9c-10.6-3.7-15.9-9.9-15.9-18.5s2-10.7,6.1-14.1c4.1-3.5,9.3-5.2,15.7-5.2s15,3,20.4,8.9l-8.7,9c-3.1-3.7-6.9-5.5-11.6-5.5s-4.4.5-6.1,1.5-2.6,2.4-2.6,4.2.7,3.4,2.2,4.5,4.1,2.3,7.8,3.6l5.2,1.9c10.2,3.8,15.4,10.2,15.4,19.2s-2.1,10.5-6.3,14.1c-4.2,3.6-9.7,5.4-16.3,5.4h0Z"/>
  <path class="st2" d="M1132.4,249v-27.2l-23.8-37.4h15.3l15.1,24.5,15.2-24.5h15.4l-23.9,37.5v27.1h-13.2Z"/>
  <path class="st2" d="M1194.2,250c-5.1,0-9.7-1-13.9-3s-7.4-4.9-9.7-8.5l10.1-8.5c1.6,2.4,3.6,4.2,6.1,5.6,2.5,1.4,5.1,2,7.9,2s4.7-.6,6.3-1.7c1.6-1.1,2.4-2.7,2.4-4.5s-.7-3.4-2.1-4.7c-1.4-1.3-3.7-2.5-6.9-3.6l-5.5-1.9c-10.6-3.7-15.9-9.9-15.9-18.5s2-10.7,6.1-14.1c4.1-3.5,9.3-5.2,15.7-5.2s15,3,20.4,8.9l-8.7,9c-3.1-3.7-6.9-5.5-11.6-5.5s-4.4.5-6.1,1.5-2.6,2.4-2.6,4.2.7,3.4,2.2,4.5,4.1,2.3,7.8,3.6l5.2,1.9c10.2,3.8,15.4,10.2,15.4,19.2s-2.1,10.5-6.3,14.1c-4.2,3.6-9.7,5.4-16.3,5.4h0Z"/>
  <path class="st2" d="M1238.3,249v-52h-17.2v-12.6h47.9v12.6h-17.4v52h-13.3Z"/>
  <path class="st2" d="M1278.1,249v-64.6h40.2v12.6h-27v13.3h21.6v12.6h-21.6v13.6h27v12.6h-40.2Z"/>
  <path class="st2" d="M1329.8,184.3h12l21,28.9,21-28.9h12v64.6h-13.2v-42l-19.8,27.2-19.8-27.2v42h-13.2v-64.6h0Z"/>
  <path class="st2" d="M1429,250c-5.1,0-9.7-1-13.9-3s-7.4-4.9-9.7-8.5l10.1-8.5c1.6,2.4,3.6,4.2,6.1,5.6,2.5,1.4,5.1,2,7.9,2s4.7-.6,6.3-1.7c1.6-1.1,2.4-2.7,2.4-4.5s-.7-3.4-2.1-4.7c-1.4-1.3-3.7-2.5-6.9-3.6l-5.5-1.9c-10.6-3.7-15.9-9.9-15.9-18.5s2-10.7,6.1-14.1c4.1-3.5,9.3-5.2,15.7-5.2s15,3,20.4,8.9l-8.7,9c-3.1-3.7-6.9-5.5-11.6-5.5s-4.4.5-6.1,1.5-2.6,2.4-2.6,4.2.7,3.4,2.2,4.5,4.1,2.3,7.8,3.6l5.2,1.9c10.2,3.8,15.4,10.2,15.4,19.2s-2.1,10.5-6.3,14.1c-4.2,3.6-9.7,5.4-16.3,5.4h0Z"/>
</svg>
